<?xml version="1.0" encoding="UTF-8" standalone="no"?>
<!DOCTYPE svg PUBLIC "-//W3C//DTD SVG 1.1//EN" "http://www.w3.org/Graphics/SVG/1.1/DTD/svg11.dtd">
<svg xmlns="http://www.w3.org/2000/svg" version="1.1" viewBox="0.00 0.00 16.00 16.00">
<g stroke-width="2.00" fill="none" stroke-linecap="butt">
<path stroke="#f3a5ac" vector-effect="non-scaling-stroke" d="
  M 8.64 3.53
  L 7.40 3.53
  A 0.27 0.27 0.0 0 0 7.13 3.80
  L 7.12 3.95
  A 5.94 0.83 -89.7 0 0 7.92 9.89
  L 8.04 9.89
  A 5.94 0.83 -89.7 0 0 8.90 3.95
  L 8.91 3.80
  A 0.27 0.27 0.0 0 0 8.64 3.53"
/>
<path stroke="#f3a5ac" vector-effect="non-scaling-stroke" d="
  M 7.57 12.32
  Q 7.60 12.45 7.62 12.57
  Q 7.63 12.63 7.75 12.63
  L 8.42 12.63
  A 0.57 0.57 0.0 0 0 8.87 11.71
  Q 8.05 10.65 7.50 11.28
  Q 7.33 11.46 7.36 11.72
  Q 7.40 11.97 7.52 12.19
  Q 7.56 12.26 7.57 12.32"
/>
</g>
<path fill="#fe646f" d="
  M 14.51 8.02
  A 6.51 6.51 0.0 0 1 8.00 14.53
  A 6.51 6.51 0.0 0 1 1.49 8.02
  A 6.51 6.51 0.0 0 1 8.00 1.51
  A 6.51 6.51 0.0 0 1 14.51 8.02
  Z
  M 8.64 3.53
  L 7.40 3.53
  A 0.27 0.27 0.0 0 0 7.13 3.80
  L 7.12 3.95
  A 5.94 0.83 -89.7 0 0 7.92 9.89
  L 8.04 9.89
  A 5.94 0.83 -89.7 0 0 8.90 3.95
  L 8.91 3.80
  A 0.27 0.27 0.0 0 0 8.64 3.53
  Z
  M 7.57 12.32
  Q 7.60 12.45 7.62 12.57
  Q 7.63 12.63 7.75 12.63
  L 8.42 12.63
  A 0.57 0.57 0.0 0 0 8.87 11.71
  Q 8.05 10.65 7.50 11.28
  Q 7.33 11.46 7.36 11.72
  Q 7.40 11.97 7.52 12.19
  Q 7.56 12.26 7.57 12.32
  Z"
/>
<path fill="#e8e6e9" d="
  M 8.64 3.53
  A 0.27 0.27 0.0 0 1 8.91 3.80
  L 8.90 3.95
  A 5.94 0.83 -89.7 0 1 8.04 9.89
  L 7.92 9.89
  A 5.94 0.83 -89.7 0 1 7.12 3.95
  L 7.13 3.80
  A 0.27 0.27 0.0 0 1 7.40 3.53
  L 8.64 3.53
  Z"
/>
<path fill="#e8e6e9" d="
  M 7.52 12.19
  Q 7.40 11.97 7.36 11.72
  Q 7.33 11.46 7.50 11.28
  Q 8.05 10.65 8.87 11.71
  A 0.57 0.57 0.0 0 1 8.42 12.63
  L 7.75 12.63
  Q 7.63 12.63 7.62 12.57
  Q 7.60 12.45 7.57 12.32
  Q 7.56 12.26 7.52 12.19
  Z"
/>
</svg>
