<?xml version="1.0" encoding="UTF-8" standalone="no"?>
<!DOCTYPE svg PUBLIC "-//W3C//DTD SVG 1.1//EN" "http://www.w3.org/Graphics/SVG/1.1/DTD/svg11.dtd">
<svg xmlns="http://www.w3.org/2000/svg" version="1.1" viewBox="0.00 0.00 75.00 75.00">
<path fill="#757575" d="
  M 67.97 58.39
  A 12.57 12.57 0.0 0 1 55.40 70.96
  L 19.60 70.96
  A 12.57 12.57 0.0 0 1 7.03 58.39
  L 7.03 18.41
  A 12.57 12.57 0.0 0 1 19.60 5.84
  L 55.40 5.84
  A 12.57 12.57 0.0 0 1 67.97 18.41
  L 67.97 58.39
  Z
  M 10.84 20.19
  L 10.93 45.97
  A 11.08 11.08 0.0 0 0 22.04 57.01
  L 52.11 56.91
  A 12.15 10.81 -0.2 0 0 64.23 46.06
  L 64.13 19.74
  A 12.15 10.81 -0.2 0 0 51.95 8.97
  L 21.88 9.07
  A 11.08 11.08 0.0 0 0 10.84 20.19
  Z
  M 52.06 60.19
  Q 35.28 59.83 18.50 59.95
  Q 14.37 59.98 11.65 57.35
  A 0.45 0.45 0.0 0 0 10.89 57.73
  C 11.75 64.35 15.95 66.74 22.44 66.90
  C 32.62 67.16 42.82 66.64 52.97 67.01
  Q 62.07 67.34 64.08 57.93
  A 0.60 0.60 0.0 0 0 63.04 57.40
  C 60.41 60.35 55.18 60.26 52.06 60.19
  Z"
/>
<path fill="#757575" d="
  M 41.19 45.65
  C 28.43 48.78 22.65 35.66 27.52 25.82
  C 31.75 17.30 44.58 18.20 48.15 27.32
  Q 51.34 35.46 45.56 42.96
  Q 45.24 43.37 45.53 43.80
  L 47.90 47.25
  Q 48.23 47.74 47.66 47.86
  C 45.89 48.26 42.30 48.23 41.71 45.97
  Q 41.61 45.55 41.19 45.65
  Z
  M 42.46 40.02
  A 0.31 0.31 0.0 0 0 42.97 39.99
  C 45.29 36.12 45.86 29.90 42.66 26.37
  C 39.62 23.00 34.41 23.08 31.81 27.05
  C 28.19 32.59 30.08 42.93 38.59 41.96
  A 0.43 0.42 -27.1 0 0 38.83 41.22
  L 36.20 38.90
  A 0.45 0.45 0.0 0 1 36.39 38.13
  Q 40.19 37.18 42.46 40.02
  Z"
/>
</svg>
