<?xml version="1.0" encoding="UTF-8" standalone="no"?>
<!DOCTYPE svg PUBLIC "-//W3C//DTD SVG 1.1//EN" "http://www.w3.org/Graphics/SVG/1.1/DTD/svg11.dtd">
<svg xmlns="http://www.w3.org/2000/svg" version="1.1" viewBox="0.00 0.00 75.00 75.00">
<path fill="#757575" d="
  M 67.97 58.40
  A 12.56 12.56 0.0 0 1 55.41 70.96
  L 19.59 70.96
  A 12.56 12.56 0.0 0 1 7.03 58.40
  L 7.03 18.40
  A 12.56 12.56 0.0 0 1 19.59 5.84
  L 55.41 5.84
  A 12.56 12.56 0.0 0 1 67.97 18.40
  L 67.97 58.40
  Z
  M 10.84 20.18
  L 10.93 46.00
  A 11.04 11.04 0.0 0 0 22.00 57.00
  L 52.17 56.90
  A 12.09 10.78 -0.2 0 0 64.23 46.08
  L 64.13 19.74
  A 12.09 10.78 -0.2 0 0 52.01 9.00
  L 21.84 9.10
  A 11.04 11.04 0.0 0 0 10.84 20.18
  Z
  M 10.86 57.75
  C 11.36 61.51 14.76 66.59 18.76 66.80
  Q 32.17 67.51 54.12 66.67
  C 59.95 66.44 63.53 63.61 63.89 57.68
  A 0.43 0.43 0.0 0 0 63.15 57.36
  Q 60.80 59.80 57.25 59.83
  Q 38.31 60.03 19.38 59.97
  C 16.16 59.96 13.80 59.52 11.70 57.34
  A 0.49 0.49 0.0 0 0 10.86 57.75
  Z"
/>
<path fill="#757575" d="
  M 34.65 31.00
  L 44.35 31.00
  A 0.65 0.65 0.0 0 1 45.00 31.65
  L 45.00 34.34
  A 0.65 0.65 0.0 0 1 44.35 34.99
  L 34.65 35.00
  A 0.65 0.65 0.0 0 0 34.00 35.65
  L 34.00 44.33
  A 0.65 0.65 0.0 0 1 33.35 44.98
  L 30.65 45.01
  A 0.65 0.65 0.0 0 1 30.00 44.36
  L 30.00 21.65
  A 0.65 0.65 0.0 0 1 30.65 21.00
  L 45.29 21.00
  A 0.65 0.65 0.0 0 1 45.94 21.63
  L 46.01 23.32
  A 0.65 0.65 0.0 0 1 45.36 23.99
  L 34.65 24.00
  A 0.65 0.65 0.0 0 0 34.00 24.65
  L 34.00 30.35
  A 0.65 0.65 0.0 0 0 34.65 31.00
  Z"
/>
</svg>
