<?xml version="1.0" encoding="UTF-8" standalone="no"?>
<!DOCTYPE svg PUBLIC "-//W3C//DTD SVG 1.1//EN" "http://www.w3.org/Graphics/SVG/1.1/DTD/svg11.dtd">
<svg xmlns="http://www.w3.org/2000/svg" version="1.1" viewBox="0.00 0.00 75.00 75.00">
<path fill="#757575" d="
  M 68.0149 58.3768
  A 12.53 12.53 0.0 0 1 55.5068 70.9286
  L 19.6068 70.9913
  A 12.53 12.53 0.0 0 1 7.0550 58.4832
  L 6.9851 18.4632
  A 12.53 12.53 0.0 0 1 19.4932 5.9114
  L 55.3932 5.8487
  A 12.53 12.53 0.0 0 1 67.9450 18.3568
  L 68.0149 58.3768
  Z
  M 10.82 20.36
  L 10.90 45.84
  A 11.21 11.21 0.0 0 0 22.15 57.01
  L 52.23 56.91
  A 12.03 11.12 -0.2 0 0 64.22 45.75
  L 64.14 20.09
  A 12.03 11.12 -0.2 0 0 52.07 9.01
  L 21.99 9.11
  A 11.21 11.21 0.0 0 0 10.82 20.36
  Z
  M 52.79 67.04
  Q 62.06 67.38 64.08 57.96
  A 0.60 0.59 -17.1 0 0 63.07 57.43
  Q 60.79 59.80 57.25 59.83
  Q 38.16 60.03 19.07 59.97
  C 15.99 59.97 13.72 59.42 11.69 57.33
  A 0.48 0.47 -71.0 0 0 10.88 57.73
  C 11.75 64.20 15.91 66.77 22.28 66.90
  C 32.46 67.11 42.65 66.66 52.79 67.04
  Z"
/>
<path fill="#757575" d="
  M 29.52 30.11
  A 0.27 0.27 0.0 0 0 29.00 30.22
  L 29.00 44.18
  Q 29.00 44.86 28.33 44.90
  L 25.80 45.04
  A 0.74 0.74 0.0 0 1 25.01 44.30
  L 24.98 22.68
  Q 24.98 21.51 26.10 21.17
  C 30.19 19.94 30.75 23.26 31.96 26.14
  Q 34.57 32.36 36.96 38.31
  A 0.59 0.59 0.0 0 0 38.05 38.31
  L 44.88 21.62
  Q 45.12 21.05 45.73 21.04
  L 49.33 20.99
  A 0.66 0.66 0.0 0 1 50.00 21.65
  L 50.00 44.32
  A 0.75 0.75 0.0 0 1 49.24 45.07
  L 46.74 45.05
  A 0.75 0.75 0.0 0 1 46.00 44.30
  L 46.00 30.72
  A 0.39 0.39 0.0 0 0 45.25 30.58
  L 40.01 43.51
  A 2.69 2.68 44.9 0 1 35.04 43.52
  L 29.52 30.11
  Z"
/>
</svg>
