<?xml version="1.0" encoding="UTF-8" standalone="no"?>
<!DOCTYPE svg PUBLIC "-//W3C//DTD SVG 1.1//EN" "http://www.w3.org/Graphics/SVG/1.1/DTD/svg11.dtd">
<svg xmlns="http://www.w3.org/2000/svg" version="1.1" viewBox="0.00 0.00 142.00 75.00">
<path fill="#757575" d="
  M 142.00 25.24
  L 142.00 53.05
  Q 136.32 58.97 124.00 58.98
  Q 72.02 59.03 20.04 58.98
  C 13.59 58.98 9.26 58.17 3.45 56.30
  Q 2.07 55.85 1.71 54.86
  Q 1.57 54.48 1.23 54.26
  L 0.00 53.44
  L 0.00 24.59
  Q 3.54 18.04 12.81 18.03
  Q 70.15 17.97 127.50 17.96
  C 132.67 17.96 140.48 19.54 142.00 25.24
  Z
  M 22.94 47.81
  Q 73.06 48.33 123.19 47.46
  C 127.72 47.38 134.21 46.90 135.54 41.81
  C 136.71 37.34 137.52 30.01 134.89 25.96
  C 131.37 20.54 121.13 21.07 115.00 21.03
  Q 65.92 20.74 16.84 21.39
  C 15.00 21.42 10.95 22.36 9.52 23.22
  C 3.70 26.73 4.85 39.71 7.84 44.81
  A 1.64 1.61 -4.9 0 0 8.66 45.49
  Q 14.58 47.72 22.94 47.81
  Z
  M 116.81 50.92
  C 108.77 50.50 98.46 50.99 92.73 50.99
  Q 54.60 51.02 16.48 50.98
  C 13.52 50.98 10.67 50.64 7.83 50.22
  A 0.50 0.49 -12.4 0 0 7.34 50.98
  Q 9.70 54.51 13.92 54.61
  C 50.70 55.40 87.54 55.05 124.33 54.71
  C 128.93 54.66 132.02 54.20 134.85 50.88
  A 0.38 0.38 0.0 0 0 134.51 50.26
  Q 125.70 51.39 116.81 50.92
  Z"
/>
</svg>
