<?xml version="1.0" encoding="UTF-8" standalone="no"?>
<!DOCTYPE svg PUBLIC "-//W3C//DTD SVG 1.1//EN" "http://www.w3.org/Graphics/SVG/1.1/DTD/svg11.dtd">
<svg xmlns="http://www.w3.org/2000/svg" version="1.1" viewBox="0.00 0.00 75.00 75.00">
<path fill="#757575" d="
  M 68.0049 58.3468
  A 12.56 12.56 0.0 0 1 55.4668 70.9287
  L 19.6469 70.9912
  A 12.56 12.56 0.0 0 1 7.0650 58.4531
  L 6.9951 18.4532
  A 12.56 12.56 0.0 0 1 19.5332 5.8713
  L 55.3531 5.8088
  A 12.56 12.56 0.0 0 1 67.9350 18.3469
  L 68.0049 58.3468
  Z
  M 21.65 56.86
  L 53.31 56.92
  A 10.78 10.78 0.0 0 0 64.11 46.16
  L 64.15 19.83
  A 12.31 10.81 0.1 0 0 51.86 8.99
  L 23.26 8.95
  A 12.31 10.81 0.1 0 0 10.93 19.73
  L 10.89 46.06
  A 10.78 10.78 0.0 0 0 21.65 56.86
  Z
  M 52.89 67.01
  Q 62.14 67.32 64.06 57.94
  A 0.58 0.58 0.0 0 0 63.08 57.42
  Q 60.79 59.80 57.25 59.83
  Q 38.32 60.03 19.40 59.97
  C 16.14 59.96 13.80 59.52 11.67 57.31
  A 0.46 0.46 0.0 0 0 10.89 57.69
  C 11.75 64.21 15.88 66.77 22.30 66.90
  C 32.50 67.10 42.72 66.66 52.89 67.01
  Z"
/>
<path fill="#757575" d="
  M 47.28 32.01
  Q 47.88 32.02 48.02 32.61
  C 51.58 48.15 29.11 51.41 26.93 36.82
  C 25.89 29.86 27.39 21.96 35.25 20.16
  C 39.71 19.13 48.57 21.88 47.94 28.09
  A 0.80 0.79 80.6 0 1 47.47 28.75
  C 45.49 29.66 44.56 28.96 43.54 27.20
  C 39.97 21.04 32.15 24.07 30.79 30.37
  Q 29.47 36.47 33.15 40.10
  C 36.86 43.76 42.39 42.57 44.15 37.58
  A 1.19 1.18 9.7 0 0 43.03 36.00
  L 38.67 36.00
  Q 38.02 36.00 38.02 35.36
  L 37.99 32.70
  Q 37.98 31.82 38.87 31.84
  L 47.28 32.01
  Z"
/>
</svg>
