<?xml version="1.0" encoding="UTF-8" standalone="no"?>
<!DOCTYPE svg PUBLIC "-//W3C//DTD SVG 1.1//EN" "http://www.w3.org/Graphics/SVG/1.1/DTD/svg11.dtd">
<svg xmlns="http://www.w3.org/2000/svg" version="1.1" viewBox="0.00 0.00 75.00 75.00">
<path fill="#757575" d="
  M 67.97 58.42
  A 12.54 12.54 0.0 0 1 55.43 70.96
  L 19.57 70.96
  A 12.54 12.54 0.0 0 1 7.03 58.42
  L 7.03 18.40
  A 12.54 12.54 0.0 0 1 19.57 5.86
  L 55.43 5.86
  A 12.54 12.54 0.0 0 1 67.97 18.40
  L 67.97 58.42
  Z
  M 10.83 20.32
  L 10.91 45.88
  A 11.16 11.16 0.0 0 0 22.11 57.00
  L 52.12 56.90
  A 12.15 11.11 -0.2 0 0 64.23 45.75
  L 64.15 20.09
  A 12.15 11.11 -0.2 0 0 51.96 9.02
  L 21.95 9.12
  A 11.16 11.16 0.0 0 0 10.83 20.32
  Z
  M 22.53 66.92
  C 32.93 67.25 43.41 66.93 53.82 66.76
  Q 62.99 66.61 63.92 57.73
  A 0.46 0.45 -20.0 0 0 63.14 57.37
  Q 60.80 59.80 57.25 59.83
  Q 38.32 60.03 19.40 59.97
  C 16.14 59.96 13.80 59.52 11.67 57.31
  A 0.46 0.45 19.4 0 0 10.89 57.68
  C 11.77 64.39 15.96 66.72 22.53 66.92
  Z"
/>
<path fill="#757575" d="
  M 38.86 30.81
  Q 38.25 31.47 38.80 32.19
  L 47.66 43.79
  A 0.86 0.86 0.0 0 1 47.17 45.15
  C 42.20 46.30 38.28 38.85 35.75 35.35
  A 1.05 1.02 74.2 0 0 35.00 34.92
  Q 33.36 34.77 33.21 37.02
  Q 32.98 40.58 32.97 44.18
  Q 32.96 44.82 32.33 44.86
  L 29.70 45.03
  Q 29.00 45.08 29.00 44.38
  L 29.00 21.81
  Q 29.00 21.13 29.68 21.10
  L 32.34 20.96
  Q 33.00 20.93 33.00 21.59
  L 33.01 30.22
  A 0.61 0.61 0.0 0 0 34.13 30.56
  C 36.68 26.75 41.22 19.98 46.46 20.77
  A 0.71 0.71 0.0 0 1 46.88 21.95
  L 38.86 30.81
  Z"
/>
</svg>
