<?xml version="1.0" encoding="UTF-8" standalone="no"?>
<!DOCTYPE svg PUBLIC "-//W3C//DTD SVG 1.1//EN" "http://www.w3.org/Graphics/SVG/1.1/DTD/svg11.dtd">
<svg xmlns="http://www.w3.org/2000/svg" version="1.1" viewBox="0.00 0.00 75.00 75.00">
<path fill="#757575" d="
  M 67.97 58.38
  A 12.58 12.58 0.0 0 1 55.39 70.96
  L 19.61 70.96
  A 12.58 12.58 0.0 0 1 7.03 58.38
  L 7.03 18.42
  A 12.58 12.58 0.0 0 1 19.61 5.84
  L 55.39 5.84
  A 12.58 12.58 0.0 0 1 67.97 18.42
  L 67.97 58.38
  Z
  M 10.83 20.15
  L 10.93 46.05
  A 10.98 10.98 0.0 0 0 21.94 56.99
  L 52.33 56.89
  A 11.93 10.97 -0.2 0 0 64.23 45.88
  L 64.13 19.96
  A 11.93 10.97 -0.2 0 0 52.17 9.03
  L 21.78 9.13
  A 10.98 10.98 0.0 0 0 10.83 20.15
  Z
  M 10.86 57.75
  C 11.36 61.51 14.76 66.59 18.76 66.80
  Q 32.17 67.51 54.12 66.67
  C 59.95 66.44 63.53 63.61 63.89 57.68
  A 0.43 0.43 0.0 0 0 63.15 57.36
  Q 60.80 59.80 57.25 59.83
  Q 38.31 60.03 19.38 59.97
  C 16.16 59.96 13.80 59.52 11.70 57.34
  A 0.49 0.49 0.0 0 0 10.86 57.75
  Z"
/>
<path fill="#757575" d="
  M 41.56 21.19
  C 48.48 22.74 48.87 33.19 42.64 36.24
  C 40.11 37.48 36.59 36.89 33.63 37.09
  A 0.67 0.67 0.0 0 0 33.00 37.76
  L 33.00 44.00
  Q 33.00 44.80 32.20 44.85
  L 29.71 45.04
  Q 29.00 45.09 29.00 44.38
  L 29.00 21.80
  Q 29.00 21.41 29.39 21.35
  Q 36.95 20.15 41.56 21.19
  Z
  M 33.01 25.09
  L 32.99 32.13
  A 1.05 1.05 0.0 0 0 34.04 33.18
  L 37.95 33.19
  A 4.98 4.54 0.1 0 0 42.94 28.66
  L 42.94 28.60
  A 4.98 4.54 0.1 0 0 37.97 24.05
  L 34.06 24.04
  A 1.05 1.05 0.0 0 0 33.01 25.09
  Z"
/>
</svg>
