<?xml version="1.0" encoding="UTF-8" standalone="no"?>
<!DOCTYPE svg PUBLIC "-//W3C//DTD SVG 1.1//EN" "http://www.w3.org/Graphics/SVG/1.1/DTD/svg11.dtd">
<svg xmlns="http://www.w3.org/2000/svg" version="1.1" viewBox="0.00 0.00 75.00 75.00">
<path fill="#757575" d="
  M 68.0049 58.3668
  A 12.54 12.54 0.0 0 1 55.4868 70.9287
  L 19.6268 70.9912
  A 12.54 12.54 0.0 0 1 7.0650 58.4731
  L 6.9951 18.4532
  A 12.54 12.54 0.0 0 1 19.5132 5.8913
  L 55.3732 5.8288
  A 12.54 12.54 0.0 0 1 67.9350 18.3469
  L 68.0049 58.3668
  Z
  M 10.84 20.17
  L 10.93 46.03
  A 11.00 11.00 0.0 0 0 21.96 56.99
  L 52.34 56.89
  A 11.92 11.01 -0.2 0 0 64.22 45.84
  L 64.13 20.00
  A 11.92 11.01 -0.2 0 0 52.18 9.03
  L 21.80 9.13
  A 11.00 11.00 0.0 0 0 10.84 20.17
  Z
  M 52.35 66.99
  C 58.84 67.21 62.91 64.44 63.99 57.87
  A 0.53 0.53 0.0 0 0 63.08 57.42
  Q 60.79 59.80 57.25 59.83
  Q 38.32 60.03 19.40 59.97
  C 16.14 59.96 13.80 59.52 11.67 57.31
  A 0.46 0.46 0.0 0 0 10.89 57.69
  C 11.75 64.21 15.88 66.77 22.30 66.90
  C 32.32 67.11 42.37 66.64 52.35 66.99
  Z"
/>
<rect fill="#757575" x="-1.50" y="-12.00" transform="translate(37.50,32.98) rotate(-0.1)" width="3.00" height="24.00" rx="0.99"/>
</svg>
