<?xml version="1.0" encoding="UTF-8" standalone="no"?>
<!DOCTYPE svg PUBLIC "-//W3C//DTD SVG 1.1//EN" "http://www.w3.org/Graphics/SVG/1.1/DTD/svg11.dtd">
<svg xmlns="http://www.w3.org/2000/svg" version="1.1" viewBox="0.00 0.00 75.00 75.00">
<path fill="#757575" d="
  M 67.97 58.42
  A 12.54 12.54 0.0 0 1 55.43 70.96
  L 19.57 70.96
  A 12.54 12.54 0.0 0 1 7.03 58.42
  L 7.03 18.40
  A 12.54 12.54 0.0 0 1 19.57 5.86
  L 55.43 5.86
  A 12.54 12.54 0.0 0 1 67.97 18.40
  L 67.97 58.42
  Z
  M 64.12 46.02
  L 64.12 20.00
  A 10.93 10.93 0.0 0 0 53.19 9.07
  L 22.99 9.07
  A 12.19 10.73 0.0 0 0 10.80 19.80
  L 10.80 46.22
  A 12.19 10.73 0.0 0 0 22.99 56.95
  L 53.19 56.95
  A 10.93 10.93 0.0 0 0 64.12 46.02
  Z
  M 52.89 67.01
  Q 62.14 67.32 64.07 57.94
  A 0.58 0.58 0.0 0 0 63.08 57.42
  Q 60.79 59.80 57.25 59.83
  Q 38.31 60.03 19.38 59.97
  C 16.15 59.96 13.82 59.52 11.72 57.32
  A 0.48 0.48 0.0 0 0 10.90 57.71
  C 11.74 64.18 15.89 66.78 22.25 66.90
  C 32.47 67.10 42.70 66.67 52.89 67.01
  Z"
/>
<path fill="#757575" d="
  M 27.97 22.36
  A 1.61 1.61 0.0 0 1 29.58 20.74
  L 38.01 20.73
  A 11.02 10.20 89.9 0 1 48.23 31.73
  L 48.23 34.21
  A 11.02 10.20 89.9 0 1 38.05 45.25
  L 29.62 45.26
  A 1.61 1.61 0.0 0 1 28.01 43.66
  L 27.97 22.36
  Z
  M 31.99 24.78
  L 31.99 41.28
  A 0.70 0.70 0.0 0 0 32.69 41.98
  L 35.77 41.98
  A 8.50 8.22 -0.0 0 0 44.27 33.76
  L 44.27 32.30
  A 8.50 8.22 -0.0 0 0 35.77 24.08
  L 32.69 24.08
  A 0.70 0.70 0.0 0 0 31.99 24.78
  Z"
/>
</svg>
