<?xml version="1.0" encoding="UTF-8" standalone="no"?>
<!DOCTYPE svg PUBLIC "-//W3C//DTD SVG 1.1//EN" "http://www.w3.org/Graphics/SVG/1.1/DTD/svg11.dtd">
<svg xmlns="http://www.w3.org/2000/svg" version="1.1" viewBox="0.00 0.00 75.00 75.00">
<path fill="#757575" d="
  M 67.9350 58.4631
  A 12.55 12.55 0.0 0 1 55.3631 70.9912
  L 19.5232 70.9287
  A 12.55 12.55 0.0 0 1 6.9951 58.3568
  L 7.0650 18.3369
  A 12.55 12.55 0.0 0 1 19.6369 5.8088
  L 55.4768 5.8713
  A 12.55 12.55 0.0 0 1 68.0049 18.4432
  L 67.9350 58.4631
  Z
  M 10.83 20.16
  L 10.93 46.04
  A 10.99 10.99 0.0 0 0 21.95 56.99
  L 52.29 56.89
  A 11.97 11.03 -0.2 0 0 64.22 45.82
  L 64.13 20.02
  A 11.97 11.03 -0.2 0 0 52.13 9.03
  L 21.79 9.13
  A 10.99 10.99 0.0 0 0 10.83 20.16
  Z
  M 52.60 66.99
  C 58.67 67.18 63.51 64.11 63.88 57.68
  A 0.42 0.42 0.0 0 0 63.15 57.36
  Q 60.81 59.80 57.25 59.83
  Q 38.17 60.03 19.09 59.97
  C 15.96 59.97 13.71 59.41 11.66 57.30
  A 0.46 0.45 19.3 0 0 10.88 57.67
  C 11.76 64.24 15.88 66.76 22.33 66.90
  C 32.43 67.12 42.54 66.67 52.60 66.99
  Z"
/>
<path fill="#757575" d="
  M 48.97 44.90
  Q 48.86 42.71 50.32 40.98
  Q 50.65 40.60 50.66 40.09
  L 50.80 33.90
  A 0.73 0.72 88.2 0 1 51.45 33.20
  L 54.34 32.92
  A 0.77 0.77 0.0 0 1 55.18 33.63
  C 55.57 38.55 55.84 42.95 51.85 46.19
  A 1.77 1.77 0.0 0 1 48.97 44.90
  Z"
/>
</svg>
