<?xml version="1.0" encoding="UTF-8" standalone="no"?>
<!DOCTYPE svg PUBLIC "-//W3C//DTD SVG 1.1//EN" "http://www.w3.org/Graphics/SVG/1.1/DTD/svg11.dtd">
<svg xmlns="http://www.w3.org/2000/svg" version="1.1" viewBox="0.00 0.00 75.00 75.00">
<path fill="#757575" d="
  M 67.97 58.41
  A 12.55 12.55 0.0 0 1 55.42 70.96
  L 19.58 70.96
  A 12.55 12.55 0.0 0 1 7.03 58.41
  L 7.03 18.41
  A 12.55 12.55 0.0 0 1 19.58 5.86
  L 55.42 5.86
  A 12.55 12.55 0.0 0 1 67.97 18.41
  L 67.97 58.41
  Z
  M 10.85 20.24
  L 10.85 45.76
  A 11.22 11.22 0.0 0 0 22.07 56.98
  L 51.86 56.98
  A 12.35 11.04 0.0 0 0 64.21 45.94
  L 64.21 20.06
  A 12.35 11.04 0.0 0 0 51.86 9.02
  L 22.07 9.02
  A 11.22 11.22 0.0 0 0 10.85 20.24
  Z
  M 22.53 66.93
  C 32.94 67.25 43.42 66.94 53.82 66.76
  Q 62.99 66.61 63.91 57.75
  A 0.47 0.47 0.0 0 0 63.10 57.38
  Q 60.81 59.83 57.25 59.86
  Q 38.32 60.03 19.40 59.97
  C 16.14 59.96 13.80 59.52 11.67 57.31
  A 0.46 0.45 19.4 0 0 10.89 57.68
  C 11.77 64.39 15.96 66.72 22.53 66.93
  Z"
/>
<path fill="#757575" d="
  M 44.28 32.66
  C 45.42 33.78 46.56 34.61 46.95 36.23
  C 49.70 47.79 35.70 44.99 29.73 44.98
  A 0.73 0.73 0.0 0 1 29.00 44.25
  L 29.00 21.99
  A 0.98 0.98 0.0 0 1 29.98 21.01
  C 35.09 20.98 48.08 18.79 45.97 28.53
  Q 45.79 29.39 44.19 31.76
  A 0.72 0.71 -51.0 0 0 44.28 32.66
  Z
  M 32.99 24.83
  L 32.99 30.17
  A 0.82 0.82 0.0 0 0 33.82 30.99
  L 37.31 30.98
  A 4.85 3.36 -0.1 0 0 42.15 27.61
  L 42.15 27.35
  A 4.85 3.36 -0.1 0 0 37.29 24.00
  L 33.80 24.01
  A 0.82 0.82 0.0 0 0 32.99 24.83
  Z
  M 33.01 34.99
  L 32.99 41.07
  A 0.94 0.94 0.0 0 0 33.93 42.02
  L 36.83 42.03
  A 6.40 3.74 0.2 0 0 43.24 38.31
  L 43.24 37.83
  A 6.40 3.74 0.2 0 0 36.85 34.07
  L 33.95 34.06
  A 0.94 0.94 0.0 0 0 33.01 34.99
  Z"
/>
</svg>
