<?xml version="1.0" encoding="UTF-8" standalone="no"?>
<!DOCTYPE svg PUBLIC "-//W3C//DTD SVG 1.1//EN" "http://www.w3.org/Graphics/SVG/1.1/DTD/svg11.dtd">
<svg xmlns="http://www.w3.org/2000/svg" version="1.1" viewBox="0.00 0.00 75.00 75.00">
<path fill="#757575" d="
  M 68.0049 58.3468
  A 12.55 12.55 0.0 0 1 55.4768 70.9187
  L 19.6368 70.9812
  A 12.55 12.55 0.0 0 1 7.0650 58.4531
  L 6.9951 18.4532
  A 12.55 12.55 0.0 0 1 19.5232 5.8813
  L 55.3632 5.8188
  A 12.55 12.55 0.0 0 1 67.9350 18.3469
  L 68.0049 58.3468
  Z
  M 64.14 45.88
  L 64.10 20.04
  A 11.03 11.03 0.0 0 0 53.05 9.03
  L 23.05 9.09
  A 12.31 10.87 -0.1 0 0 10.76 19.98
  L 10.80 46.14
  A 12.31 10.87 -0.1 0 0 23.13 56.99
  L 53.13 56.93
  A 11.03 11.03 0.0 0 0 64.14 45.88
  Z
  M 46.29 66.90
  C 55.70 66.76 62.19 67.93 64.03 57.87
  A 0.54 0.54 0.0 0 0 63.11 57.40
  Q 60.80 59.80 57.25 59.83
  Q 38.31 60.03 19.38 59.97
  C 16.15 59.96 13.80 59.52 11.69 57.33
  A 0.48 0.48 0.0 0 0 10.87 57.75
  Q 12.52 66.98 22.00 67.03
  Q 34.14 67.09 46.29 66.90
  Z"
/>
<path fill="#757575" d="
  M 32.34 39.77
  C 34.91 42.95 40.27 42.59 42.83 39.63
  A 1.32 1.31 65.5 0 0 43.15 38.77
  L 42.94 21.70
  A 0.68 0.68 0.0 0 1 43.62 21.01
  L 46.35 21.01
  Q 47.04 21.01 47.03 21.70
  C 46.96 26.58 48.19 37.16 46.45 41.32
  C 43.56 48.24 28.75 48.08 28.32 39.17
  Q 27.90 30.43 27.99 21.66
  A 0.65 0.65 0.0 0 1 28.64 21.02
  L 31.21 20.99
  A 0.79 0.78 -0.0 0 1 32.00 21.77
  L 32.00 38.82
  A 1.53 1.49 26.2 0 0 32.34 39.77
  Z"
/>
</svg>
