<?xml version="1.0" encoding="UTF-8" standalone="no"?>
<!DOCTYPE svg PUBLIC "-//W3C//DTD SVG 1.1//EN" "http://www.w3.org/Graphics/SVG/1.1/DTD/svg11.dtd">
<svg xmlns="http://www.w3.org/2000/svg" version="1.1" viewBox="0.00 0.00 75.00 75.00">
<path fill="#757575" d="
  M 67.9350 58.4831
  A 12.53 12.53 0.0 0 1 55.3832 70.9913
  L 19.5032 70.9286
  A 12.53 12.53 0.0 0 1 6.9951 58.3768
  L 7.0650 18.3369
  A 12.53 12.53 0.0 0 1 19.6168 5.8287
  L 55.4968 5.8914
  A 12.53 12.53 0.0 0 1 68.0049 18.4432
  L 67.9350 58.4831
  Z
  M 64.09 46.13
  L 64.09 19.89
  A 10.78 10.78 0.0 0 0 53.31 9.11
  L 22.88 9.11
  A 11.93 9.81 0.0 0 0 10.95 18.92
  L 10.95 47.10
  A 11.93 9.81 0.0 0 0 22.88 56.91
  L 53.31 56.91
  A 10.78 10.78 0.0 0 0 64.09 46.13
  Z
  M 10.85 57.74
  C 11.36 61.51 14.74 66.58 18.76 66.79
  Q 32.37 67.52 54.10 66.67
  C 59.94 66.44 63.53 63.62 63.89 57.69
  A 0.43 0.43 0.0 0 0 63.15 57.36
  Q 60.81 59.80 57.25 59.83
  Q 38.31 60.03 19.38 59.97
  C 16.16 59.96 13.82 59.52 11.72 57.32
  A 0.51 0.51 0.0 0 0 10.85 57.74
  Z"
/>
<rect fill="#757575" x="-2.06" y="-5.55" transform="translate(29.98,26.43) rotate(-0.4)" width="4.12" height="11.10" rx="0.84"/>
<rect fill="#757575" x="-2.01" y="-5.55" transform="translate(44.98,26.44) rotate(0.4)" width="4.02" height="11.10" rx="0.73"/>
<rect fill="#757575" x="-2.05" y="-5.48" transform="translate(22.95,26.51) rotate(-0.2)" width="4.10" height="10.96" rx="0.57"/>
</svg>
