<?xml version="1.0" encoding="UTF-8" standalone="no"?>
<!DOCTYPE svg PUBLIC "-//W3C//DTD SVG 1.1//EN" "http://www.w3.org/Graphics/SVG/1.1/DTD/svg11.dtd">
<svg xmlns="http://www.w3.org/2000/svg" version="1.1" viewBox="0.00 0.00 75.00 75.00">
<path fill="#757575" d="
  M 67.97 58.39
  A 12.56 12.56 0.0 0 1 55.41 70.95
  L 19.59 70.95
  A 12.56 12.56 0.0 0 1 7.03 58.39
  L 7.03 18.41
  A 12.56 12.56 0.0 0 1 19.59 5.85
  L 55.41 5.85
  A 12.56 12.56 0.0 0 1 67.97 18.41
  L 67.97 58.39
  Z
  M 10.84 20.20
  L 10.93 45.98
  A 11.07 11.07 0.0 0 0 22.03 57.01
  L 52.15 56.91
  A 12.11 10.81 -0.2 0 0 64.23 46.06
  L 64.13 19.76
  A 12.11 10.81 -0.2 0 0 51.99 8.99
  L 21.87 9.09
  A 11.07 11.07 0.0 0 0 10.84 20.20
  Z
  M 10.90 57.64
  C 11.43 63.08 15.54 66.89 21.07 66.93
  Q 38.86 67.05 51.72 66.79
  C 58.61 66.65 63.38 65.20 63.88 57.68
  A 0.42 0.42 0.0 0 0 63.16 57.36
  Q 60.81 59.79 57.25 59.82
  Q 37.26 60.01 17.24 60.00
  Q 14.99 59.99 11.52 57.30
  A 0.38 0.38 0.0 0 0 10.90 57.64
  Z"
/>
<path fill="#757575" d="
  M 34.75 31.00
  L 44.25 31.00
  Q 45.00 31.00 45.00 31.75
  L 45.00 33.63
  A 1.37 1.37 0.0 0 1 43.63 35.00
  L 34.63 35.00
  Q 34.00 35.00 34.00 35.62
  L 34.00 41.25
  Q 34.00 42.00 34.75 42.00
  L 44.74 42.00
  A 1.20 1.19 -13.2 0 1 45.81 42.66
  Q 46.36 43.76 45.80 44.48
  Q 45.41 44.98 44.41 44.98
  Q 37.52 45.01 30.78 44.99
  A 0.78 0.78 0.0 0 1 30.00 44.21
  L 30.00 22.00
  A 1.00 1.00 0.0 0 1 31.00 21.00
  L 45.17 21.00
  A 0.72 0.71 87.4 0 1 45.88 21.65
  L 46.01 23.26
  A 0.67 0.67 0.0 0 1 45.34 23.99
  L 34.50 24.00
  Q 34.00 24.00 34.00 24.50
  L 34.00 30.25
  Q 34.00 31.00 34.75 31.00
  Z"
/>
</svg>
