<?xml version="1.0" encoding="UTF-8" standalone="no"?>
<!DOCTYPE svg PUBLIC "-//W3C//DTD SVG 1.1//EN" "http://www.w3.org/Graphics/SVG/1.1/DTD/svg11.dtd">
<svg xmlns="http://www.w3.org/2000/svg" version="1.1" viewBox="0.00 0.00 75.00 75.00">
<path fill="#757575" d="
  M 68.0396 58.2935
  A 12.56 12.56 0.0 0 1 55.5235 70.8973
  L 19.7038 71.0223
  A 12.56 12.56 0.0 0 1 7.1000 58.5062
  L 6.9604 18.5065
  A 12.56 12.56 0.0 0 1 19.4765 5.9027
  L 55.2962 5.7777
  A 12.56 12.56 0.0 0 1 67.9000 18.2938
  L 68.0396 58.2935
  Z
  M 10.83 20.33
  L 10.91 45.87
  A 11.17 11.17 0.0 0 0 22.12 57.00
  L 52.09 56.90
  A 12.18 11.06 -0.2 0 0 64.23 45.80
  L 64.14 20.04
  A 12.18 11.06 -0.2 0 0 51.93 9.02
  L 21.96 9.12
  A 11.17 11.17 0.0 0 0 10.83 20.33
  Z
  M 46.42 66.88
  C 53.64 66.92 63.25 68.03 63.89 57.69
  A 0.43 0.43 0.0 0 0 63.15 57.36
  Q 60.80 59.80 57.25 59.83
  Q 38.32 60.03 19.40 59.97
  C 16.14 59.96 13.80 59.52 11.67 57.31
  A 0.46 0.45 19.4 0 0 10.89 57.68
  C 11.77 64.39 15.97 66.73 22.55 66.92
  C 30.52 67.15 38.46 66.83 46.42 66.88
  Z"
/>
<path fill="#757575" d="
  M 41.34 24.00
  L 30.74 24.00
  A 0.65 0.65 0.0 0 1 30.09 23.35
  L 30.09 21.65
  A 0.65 0.65 0.0 0 1 30.74 21.00
  L 45.35 21.00
  A 0.65 0.65 0.0 0 1 46.00 21.65
  L 46.00 44.35
  A 0.65 0.65 0.0 0 1 45.35 45.00
  L 30.71 45.00
  A 0.65 0.65 0.0 0 1 30.06 44.37
  L 29.99 42.68
  A 0.65 0.65 0.0 0 1 30.64 42.01
  L 41.34 42.00
  A 0.65 0.65 0.0 0 0 41.99 41.35
  L 41.99 24.65
  A 0.65 0.65 0.0 0 0 41.34 24.00
  Z"
/>
</svg>
