<?xml version="1.0" encoding="UTF-8" standalone="no"?>
<!DOCTYPE svg PUBLIC "-//W3C//DTD SVG 1.1//EN" "http://www.w3.org/Graphics/SVG/1.1/DTD/svg11.dtd">
<svg xmlns="http://www.w3.org/2000/svg" version="1.1" viewBox="0.00 0.00 75.00 75.00">
<path fill="#757575" d="
  M 67.9150 58.4931
  A 12.59 12.59 0.0 0 1 55.3031 71.0611
  L 19.5831 70.9988
  A 12.59 12.59 0.0 0 1 7.0151 58.3868
  L 7.0850 18.3869
  A 12.59 12.59 0.0 0 1 19.6969 5.8189
  L 55.4169 5.8812
  A 12.59 12.59 0.0 0 1 67.9849 18.4932
  L 67.9150 58.4931
  Z
  M 64.09 46.08
  L 64.09 19.94
  A 10.85 10.85 0.0 0 0 53.24 9.09
  L 22.98 9.09
  A 12.03 9.87 0.0 0 0 10.95 18.96
  L 10.95 47.06
  A 12.03 9.87 -0.0 0 0 22.98 56.93
  L 53.24 56.93
  A 10.85 10.85 0.0 0 0 64.09 46.08
  Z
  M 52.06 60.19
  Q 27.23 59.94 19.26 60.19
  Q 14.62 60.33 11.69 57.18
  A 0.54 0.54 0.0 0 0 10.76 57.66
  Q 12.57 66.75 21.50 66.89
  Q 34.51 67.10 47.52 66.87
  C 54.83 66.74 63.28 67.74 63.86 57.62
  Q 63.90 56.92 63.36 57.36
  C 59.73 60.31 55.91 60.23 52.06 60.19
  Z"
/>
<path fill="#757575" d="
  M 34.65 42.00
  L 45.29 42.00
  A 0.65 0.65 0.0 0 1 45.94 42.63
  L 46.01 44.33
  A 0.65 0.65 0.0 0 1 45.36 45.00
  L 30.65 45.00
  A 0.65 0.65 0.0 0 1 30.00 44.35
  L 30.00 21.67
  A 0.65 0.65 0.0 0 1 30.65 21.02
  L 33.35 20.99
  A 0.65 0.65 0.0 0 1 34.00 21.64
  L 34.00 41.35
  A 0.65 0.65 0.0 0 0 34.65 42.00
  Z"
/>
</svg>
