<?xml version="1.0" encoding="UTF-8" standalone="no"?>
<!DOCTYPE svg PUBLIC "-//W3C//DTD SVG 1.1//EN" "http://www.w3.org/Graphics/SVG/1.1/DTD/svg11.dtd">
<svg xmlns="http://www.w3.org/2000/svg" version="1.1" viewBox="0.00 0.00 75.00 75.00">
<path fill="#757575" d="
  M 67.9350 58.4631
  A 12.55 12.55 0.0 0 1 55.3631 70.9912
  L 19.5232 70.9287
  A 12.55 12.55 0.0 0 1 6.9951 58.3568
  L 7.0650 18.3369
  A 12.55 12.55 0.0 0 1 19.6369 5.8088
  L 55.4768 5.8713
  A 12.55 12.55 0.0 0 1 68.0049 18.4432
  L 67.9350 58.4631
  Z
  M 10.83 20.21
  L 10.92 45.99
  A 11.05 11.05 0.0 0 0 22.00 57.00
  L 52.21 56.90
  A 12.06 11.09 -0.2 0 0 64.23 45.77
  L 64.14 20.07
  A 12.06 11.09 -0.2 0 0 52.05 9.02
  L 21.84 9.12
  A 11.05 11.05 0.0 0 0 10.83 20.21
  Z
  M 53.01 66.99
  Q 62.18 67.28 64.06 57.93
  A 0.58 0.57 -17.4 0 0 63.08 57.42
  Q 60.79 59.79 57.25 59.82
  Q 37.26 60.01 17.24 60.00
  Q 15.08 59.99 11.54 57.33
  A 0.40 0.40 0.0 0 0 10.90 57.70
  C 11.83 64.69 16.20 66.79 23.02 66.91
  C 33.02 67.09 43.03 66.67 53.01 66.99
  Z"
/>
<path fill="#757575" d="
  M 34.72 42.00
  L 45.76 42.00
  A 1.19 1.19 0.0 0 1 46.88 42.79
  Q 47.55 44.70 45.75 44.75
  Q 36.92 45.03 28.78 45.03
  A 1.25 1.24 -72.2 0 1 27.77 43.06
  L 40.82 24.77
  A 0.49 0.49 0.0 0 0 40.42 24.00
  L 30.27 24.00
  A 1.25 1.24 -12.9 0 1 29.15 23.30
  Q 28.55 22.06 29.30 21.40
  Q 29.75 21.01 30.79 21.00
  Q 38.65 20.98 46.14 21.01
  A 1.16 1.16 0.0 0 1 47.08 22.85
  L 34.11 40.81
  A 0.75 0.75 0.0 0 0 34.72 42.00
  Z"
/>
</svg>
