<?xml version="1.0" encoding="UTF-8" standalone="no"?>
<!DOCTYPE svg PUBLIC "-//W3C//DTD SVG 1.1//EN" "http://www.w3.org/Graphics/SVG/1.1/DTD/svg11.dtd">
<svg xmlns="http://www.w3.org/2000/svg" version="1.1" viewBox="0.00 0.00 75.00 75.00">
<path fill="#757575" d="
  M 68.0049 58.3568
  A 12.55 12.55 0.0 0 1 55.4768 70.9287
  L 19.6369 70.9912
  A 12.55 12.55 0.0 0 1 7.0650 58.4631
  L 6.9951 18.4432
  A 12.55 12.55 0.0 0 1 19.5232 5.8713
  L 55.3631 5.8088
  A 12.55 12.55 0.0 0 1 67.9350 18.3369
  L 68.0049 58.3568
  Z
  M 10.81 20.33
  L 10.89 45.87
  A 11.19 11.19 0.0 0 0 22.12 57.02
  L 52.06 56.92
  A 12.25 11.41 -0.2 0 0 64.27 45.47
  L 64.19 20.37
  A 12.25 11.41 -0.2 0 0 51.90 9.00
  L 21.96 9.10
  A 11.19 11.19 0.0 0 0 10.81 20.33
  Z
  M 10.86 57.75
  C 11.36 61.49 14.70 66.58 18.75 66.79
  Q 32.45 67.51 54.11 66.67
  C 59.94 66.44 63.53 63.62 63.89 57.68
  A 0.43 0.43 0.0 0 0 63.15 57.36
  Q 60.80 59.80 57.25 59.83
  Q 38.31 60.03 19.38 59.97
  C 16.16 59.96 13.80 59.52 11.70 57.34
  A 0.49 0.49 0.0 0 0 10.86 57.75
  Z"
/>
<path fill="#757575" d="
  M 41.09 19.98
  L 42.33 20.03
  A 0.51 0.51 0.0 0 1 42.81 20.67
  L 36.75 45.23
  Q 36.56 46.00 35.76 46.00
  L 32.55 46.00
  Q 31.89 46.00 32.06 45.36
  Q 36.07 30.32 38.15 21.09
  Q 38.55 19.29 40.17 19.82
  Q 40.62 19.97 41.09 19.98
  Z"
/>
</svg>
