<?xml version="1.0" encoding="UTF-8" standalone="no"?>
<!DOCTYPE svg PUBLIC "-//W3C//DTD SVG 1.1//EN" "http://www.w3.org/Graphics/SVG/1.1/DTD/svg11.dtd">
<svg xmlns="http://www.w3.org/2000/svg" version="1.1" viewBox="0.00 0.00 75.00 75.00">
<path fill="#757575" d="
  M 67.97 58.42
  A 12.54 12.54 0.0 0 1 55.43 70.96
  L 19.57 70.96
  A 12.54 12.54 0.0 0 1 7.03 58.42
  L 7.03 18.40
  A 12.54 12.54 0.0 0 1 19.57 5.86
  L 55.43 5.86
  A 12.54 12.54 0.0 0 1 67.97 18.40
  L 67.97 58.42
  Z
  M 10.82 20.30
  L 10.90 45.90
  A 11.16 11.16 0.0 0 0 22.10 57.02
  L 52.10 56.92
  A 12.18 11.25 -0.2 0 0 64.24 45.63
  L 64.16 20.21
  A 12.18 11.25 -0.2 0 0 51.94 9.00
  L 21.94 9.10
  A 11.16 11.16 0.0 0 0 10.82 20.30
  Z
  M 46.41 66.91
  C 53.66 66.99 63.21 67.98 63.90 57.69
  A 0.44 0.44 0.0 0 0 63.15 57.36
  Q 60.80 59.80 57.25 59.83
  Q 38.32 60.03 19.40 59.97
  C 16.14 59.96 13.80 59.52 11.67 57.31
  A 0.46 0.45 19.4 0 0 10.89 57.68
  C 11.77 64.40 15.97 66.73 22.55 66.92
  C 30.52 67.14 38.46 66.82 46.41 66.91
  Z"
/>
<path fill="#757575" d="
  M 36.92 28.78
  A 0.51 0.51 0.0 0 0 37.77 28.87
  C 40.22 25.87 42.70 19.27 47.38 21.12
  A 0.77 0.77 0.0 0 1 47.71 22.29
  L 40.26 32.32
  A 1.03 1.03 0.0 0 0 40.24 33.51
  L 47.63 44.29
  A 0.42 0.41 59.8 0 1 47.47 44.91
  C 43.16 46.96 39.78 40.61 38.21 37.66
  A 0.89 0.89 0.0 0 0 36.68 37.59
  C 34.15 41.47 32.99 45.50 27.69 45.25
  A 0.69 0.69 0.0 0 1 27.15 44.17
  L 34.58 33.24
  Q 34.97 32.67 34.56 32.10
  L 27.27 21.95
  A 0.49 0.49 0.0 0 1 27.46 21.22
  C 32.24 18.93 35.28 25.49 36.92 28.78
  Z"
/>
</svg>
