<?xml version="1.0" encoding="UTF-8" standalone="no"?>
<!DOCTYPE svg PUBLIC "-//W3C//DTD SVG 1.1//EN" "http://www.w3.org/Graphics/SVG/1.1/DTD/svg11.dtd">
<svg xmlns="http://www.w3.org/2000/svg" version="1.1" viewBox="0.00 0.00 75.00 75.00">
<path fill="#757575" d="
  M 67.97 58.41
  A 12.55 12.55 0.0 0 1 55.42 70.96
  L 19.58 70.96
  A 12.55 12.55 0.0 0 1 7.03 58.41
  L 7.03 18.41
  A 12.55 12.55 0.0 0 1 19.58 5.86
  L 55.42 5.86
  A 12.55 12.55 0.0 0 1 67.97 18.41
  L 67.97 58.41
  Z
  M 10.83 20.26
  L 10.83 45.74
  A 11.20 11.20 0.0 0 0 22.03 56.94
  L 52.07 56.94
  A 12.14 11.28 0.0 0 0 64.21 45.66
  L 64.21 20.34
  A 12.14 11.28 0.0 0 0 52.07 9.06
  L 22.03 9.06
  A 11.20 11.20 0.0 0 0 10.83 20.26
  Z
  M 10.85 57.74
  C 11.36 61.51 14.74 66.58 18.76 66.79
  Q 32.37 67.52 54.10 66.67
  C 59.94 66.44 63.53 63.62 63.89 57.69
  A 0.43 0.43 0.0 0 0 63.15 57.36
  Q 60.81 59.80 57.25 59.83
  Q 38.31 60.03 19.38 59.97
  C 16.16 59.96 13.82 59.52 11.72 57.32
  A 0.51 0.51 0.0 0 0 10.85 57.74
  Z"
/>
<path fill="#757575" d="
  M 43.47 35.00
  L 31.63 35.00
  Q 31.00 35.00 31.00 35.62
  L 31.00 43.77
  A 1.17 1.17 0.0 0 1 30.21 44.88
  Q 28.31 45.55 28.26 43.75
  Q 27.99 32.77 27.96 21.78
  Q 27.96 21.03 28.71 21.02
  L 30.37 20.99
  Q 31.00 20.98 31.00 21.62
  L 31.00 30.25
  Q 31.00 31.00 31.75 31.00
  L 43.50 31.00
  A 0.50 0.50 0.0 0 0 44.00 30.50
  L 44.00 21.77
  Q 44.00 20.97 44.80 21.00
  L 46.42 21.06
  A 0.60 0.60 0.0 0 1 47.00 21.66
  L 47.00 44.01
  Q 47.00 44.62 46.42 44.82
  Q 44.31 45.56 44.23 43.75
  Q 44.05 39.61 43.94 35.46
  Q 43.93 35.00 43.47 35.00
  Z"
/>
</svg>
