<?xml version="1.0" encoding="UTF-8" standalone="no"?>
<!DOCTYPE svg PUBLIC "-//W3C//DTD SVG 1.1//EN" "http://www.w3.org/Graphics/SVG/1.1/DTD/svg11.dtd">
<svg xmlns="http://www.w3.org/2000/svg" version="1.1" viewBox="0.00 0.00 75.00 75.00">
<path fill="#757575" d="
  M 67.97 58.40
  A 12.55 12.55 0.0 0 1 55.42 70.95
  L 19.58 70.95
  A 12.55 12.55 0.0 0 1 7.03 58.40
  L 7.03 18.40
  A 12.55 12.55 0.0 0 1 19.58 5.85
  L 55.42 5.85
  A 12.55 12.55 0.0 0 1 67.97 18.40
  L 67.97 58.40
  Z
  M 10.87 20.10
  L 10.91 46.02
  A 10.97 10.97 0.0 0 0 21.90 56.97
  L 52.30 56.91
  A 11.91 10.97 -0.1 0 0 64.19 45.92
  L 64.15 20.00
  A 11.91 10.97 -0.1 0 0 52.22 9.05
  L 21.82 9.11
  A 10.97 10.97 0.0 0 0 10.87 20.10
  Z
  M 52.35 66.99
  C 58.84 67.21 62.91 64.44 63.99 57.87
  A 0.53 0.53 0.0 0 0 63.09 57.42
  Q 60.79 59.79 57.25 59.82
  Q 37.26 60.01 17.24 60.00
  Q 15.08 59.99 11.54 57.33
  A 0.40 0.40 0.0 0 0 10.90 57.70
  C 11.83 64.69 16.20 66.78 23.01 66.92
  C 32.79 67.11 42.61 66.65 52.35 66.99
  Z"
/>
<path fill="#757575" d="
  M 37.06 30.26
  A 0.46 0.46 0.0 0 0 37.87 30.27
  C 39.73 26.87 42.46 19.11 47.42 21.13
  Q 47.97 21.35 47.67 21.86
  Q 44.53 27.28 41.02 32.35
  C 38.51 35.99 38.63 39.72 39.14 43.87
  A 0.79 0.78 -10.8 0 1 38.55 44.73
  L 37.24 45.06
  Q 36.49 45.24 36.37 44.49
  C 35.88 41.61 36.77 36.88 35.30 34.66
  Q 31.14 28.37 27.38 21.83
  Q 27.12 21.37 27.61 21.17
  C 29.78 20.25 31.51 20.57 32.82 22.69
  Q 35.13 26.46 37.06 30.26
  Z"
/>
</svg>
