<?xml version="1.0" encoding="UTF-8" standalone="no"?>
<!DOCTYPE svg PUBLIC "-//W3C//DTD SVG 1.1//EN" "http://www.w3.org/Graphics/SVG/1.1/DTD/svg11.dtd">
<svg xmlns="http://www.w3.org/2000/svg" version="1.1" viewBox="0.00 0.00 75.00 75.00">
<path fill="#757575" d="
  M 68.0049 58.3468
  A 12.56 12.56 0.0 0 1 55.4668 70.9287
  L 19.6469 70.9912
  A 12.56 12.56 0.0 0 1 7.0650 58.4531
  L 6.9951 18.4532
  A 12.56 12.56 0.0 0 1 19.5332 5.8713
  L 55.3531 5.8088
  A 12.56 12.56 0.0 0 1 67.9350 18.3469
  L 68.0049 58.3468
  Z
  M 21.68 56.86
  L 53.28 56.92
  A 10.81 10.81 0.0 0 0 64.11 46.13
  L 64.15 19.82
  A 12.33 10.80 0.1 0 0 51.84 8.99
  L 23.28 8.95
  A 12.33 10.80 0.1 0 0 10.93 19.72
  L 10.89 46.03
  A 10.81 10.81 0.0 0 0 21.68 56.86
  Z
  M 46.61 66.90
  C 55.77 66.76 62.31 67.79 64.00 57.87
  A 0.54 0.54 0.0 0 0 63.08 57.41
  Q 60.79 59.80 57.25 59.83
  Q 38.31 60.03 19.38 59.97
  C 16.15 59.96 13.80 59.52 11.69 57.33
  A 0.48 0.48 0.0 0 0 10.87 57.75
  Q 12.52 66.98 22.00 67.03
  Q 34.31 67.09 46.61 66.90
  Z"
/>
<path fill="#757575" d="
  M 32.58 39.17
  C 34.23 42.04 38.89 43.29 41.85 41.15
  C 43.35 40.07 43.82 37.45 46.72 37.80
  A 1.63 1.63 0.0 0 1 47.93 40.25
  C 42.22 49.98 29.69 47.39 27.26 36.47
  C 24.43 23.71 38.29 12.83 46.98 24.75
  Q 48.11 26.30 47.97 28.09
  A 0.92 0.91 81.4 0 1 47.39 28.88
  C 43.91 30.21 43.90 26.94 42.15 25.49
  C 37.66 21.76 33.14 24.57 31.54 29.40
  Q 29.87 34.47 32.58 39.17
  Z"
/>
</svg>
