<?xml version="1.0" encoding="UTF-8" standalone="no"?>
<!DOCTYPE svg PUBLIC "-//W3C//DTD SVG 1.1//EN" "http://www.w3.org/Graphics/SVG/1.1/DTD/svg11.dtd">
<svg xmlns="http://www.w3.org/2000/svg" version="1.1" viewBox="0.00 0.00 300.00 100.00">
<path fill="#757575" d="
  M 300.00 31.51
  L 300.00 70.39
  C 286.33 77.95 275.37 78.02 260.21 78.01
  Q 153.53 77.97 46.86 78.02
  C 29.94 78.03 15.39 79.17 0.00 70.52
  L 0.00 31.61
  C 16.14 22.07 31.96 23.99 49.93 23.99
  Q 161.59 24.01 273.25 23.99
  Q 286.71 23.99 300.00 31.51
  Z
  M 285.26 35.15
  Q 285.20 33.13 283.14 32.85
  Q 282.62 32.78 282.32 32.35
  C 278.86 27.43 247.58 28.19 241.44 28.17
  Q 140.72 27.80 40.00 28.21
  Q 31.39 28.25 19.44 30.86
  Q 18.89 30.98 18.50 31.40
  Q 17.32 32.65 15.62 33.14
  A 0.93 0.91 81.0 0 0 14.97 34.05
  Q 15.05 35.99 13.11 35.94
  A 1.08 1.08 0.0 0 0 12.00 37.02
  L 12.00 55.20
  A 0.78 0.78 0.0 0 0 12.75 55.98
  L 14.22 56.03
  A 0.70 0.69 87.0 0 1 14.88 56.63
  L 15.11 58.31
  A 0.69 0.69 0.0 0 0 15.69 58.90
  Q 17.46 59.18 18.51 60.68
  Q 18.78 61.06 19.23 61.15
  C 35.15 64.33 49.90 63.92 65.56 63.95
  Q 160.17 64.17 254.78 63.81
  C 263.89 63.77 272.29 62.95 280.50 61.24
  Q 281.59 61.01 282.25 59.74
  A 0.92 0.91 12.1 0 1 283.01 59.25
  Q 285.39 59.10 285.26 56.84
  A 0.63 0.63 0.0 0 1 285.76 56.19
  L 287.31 55.87
  Q 288.00 55.72 288.00 55.02
  L 288.00 37.13
  Q 288.00 36.48 287.38 36.29
  L 285.73 35.77
  A 0.68 0.67 -82.7 0 1 285.26 35.15
  Z
  M 247.31 68.05
  Q 149.36 68.04 51.40 68.00
  C 39.78 68.00 28.26 68.57 16.15 66.92
  A 0.98 0.97 63.3 0 0 15.55 68.74
  C 17.88 70.03 19.62 71.40 22.40 71.86
  Q 35.13 73.96 41.81 73.96
  Q 143.50 74.06 245.19 73.94
  C 254.85 73.93 278.63 74.06 282.52 69.57
  A 0.59 0.57 -77.8 0 1 282.79 69.39
  L 284.41 68.80
  A 1.07 1.07 0.0 0 0 283.87 66.74
  C 271.99 68.80 259.34 68.05 247.31 68.05
  Z"
/>
</svg>
