<?xml version="1.0" encoding="UTF-8" standalone="no"?>
<!DOCTYPE svg PUBLIC "-//W3C//DTD SVG 1.1//EN" "http://www.w3.org/Graphics/SVG/1.1/DTD/svg11.dtd">
<svg xmlns="http://www.w3.org/2000/svg" version="1.1" viewBox="0.00 0.00 75.00 75.00">
<path fill="#757575" d="
  M 67.97 58.40
  A 12.56 12.56 0.0 0 1 55.41 70.96
  L 19.59 70.96
  A 12.56 12.56 0.0 0 1 7.03 58.40
  L 7.03 18.40
  A 12.56 12.56 0.0 0 1 19.59 5.84
  L 55.41 5.84
  A 12.56 12.56 0.0 0 1 67.97 18.40
  L 67.97 58.40
  Z
  M 64.16 45.99
  L 64.06 19.85
  A 10.85 10.85 0.0 0 0 53.18 9.03
  L 22.82 9.14
  A 12.09 10.63 -0.2 0 0 10.76 19.81
  L 10.86 46.39
  A 12.09 10.63 -0.2 0 0 22.98 56.98
  L 53.34 56.87
  A 10.85 10.85 0.0 0 0 64.16 45.99
  Z
  M 52.89 67.01
  Q 62.14 67.32 64.06 57.94
  A 0.58 0.58 0.0 0 0 63.08 57.42
  Q 60.79 59.80 57.25 59.83
  Q 38.31 60.03 19.38 59.97
  C 16.15 59.96 13.82 59.52 11.72 57.32
  A 0.48 0.48 0.0 0 0 10.90 57.71
  C 11.74 64.18 15.89 66.78 22.25 66.90
  C 32.47 67.10 42.70 66.66 52.89 67.01
  Z"
/>
<path fill="#757575" d="
  M 43.98 37.72
  C 44.03 33.57 44.09 29.36 43.82 25.17
  Q 43.71 23.41 44.03 21.94
  A 1.50 1.50 0.0 0 1 47.00 22.26
  L 47.00 43.32
  A 2.16 2.16 0.0 0 1 43.07 44.55
  L 31.64 28.06
  A 0.39 0.39 0.0 0 0 30.93 28.28
  L 31.02 43.76
  A 1.17 1.16 -10.2 0 1 30.24 44.87
  Q 28.82 45.37 28.28 44.54
  Q 28.01 44.11 28.01 42.92
  Q 28.00 32.46 28.00 22.65
  A 2.16 2.16 0.0 0 1 31.94 21.41
  L 43.40 37.89
  A 0.32 0.31 28.2 0 0 43.98 37.72
  Z"
/>
</svg>
