<?xml version="1.0" encoding="UTF-8" standalone="no"?>
<!DOCTYPE svg PUBLIC "-//W3C//DTD SVG 1.1//EN" "http://www.w3.org/Graphics/SVG/1.1/DTD/svg11.dtd">
<svg xmlns="http://www.w3.org/2000/svg" version="1.1" viewBox="0.00 0.00 75.00 75.00">
<path fill="#757575" d="
  M 67.97 58.39
  A 12.57 12.57 0.0 0 1 55.40 70.96
  L 19.60 70.96
  A 12.57 12.57 0.0 0 1 7.03 58.39
  L 7.03 18.43
  A 12.57 12.57 0.0 0 1 19.60 5.86
  L 55.40 5.86
  A 12.57 12.57 0.0 0 1 67.97 18.43
  L 67.97 58.39
  Z
  M 10.86 20.14
  L 10.90 45.96
  A 11.05 11.05 0.0 0 0 21.97 56.99
  L 52.10 56.93
  A 12.12 10.76 -0.1 0 0 64.20 46.15
  L 64.16 19.75
  A 12.12 10.76 -0.1 0 0 52.02 9.01
  L 21.89 9.07
  A 11.05 11.05 0.0 0 0 10.86 20.14
  Z
  M 52.83 67.01
  Q 62.13 67.35 64.07 57.94
  A 0.58 0.58 0.0 0 0 63.08 57.42
  Q 60.79 59.80 57.25 59.83
  Q 38.31 60.03 19.38 59.97
  C 16.16 59.96 13.80 59.52 11.69 57.33
  A 0.48 0.48 0.0 0 0 10.87 57.75
  Q 12.52 66.98 22.00 67.04
  C 32.26 67.10 42.59 66.63 52.83 67.01
  Z"
/>
<path fill="#757575" d="
  M 42.60 35.58
  L 46.99 43.72
  Q 47.32 44.33 46.70 44.66
  Q 44.94 45.60 42.97 45.12
  A 1.20 1.19 -5.4 0 1 42.19 44.48
  L 38.36 36.66
  A 0.90 0.89 78.5 0 0 37.61 36.16
  L 33.67 35.94
  Q 33.00 35.90 33.00 36.58
  L 33.00 43.87
  Q 33.00 44.92 31.95 44.95
  L 29.67 45.01
  A 0.66 0.66 0.0 0 1 29.00 44.35
  L 29.00 21.76
  A 0.54 0.54 0.0 0 1 29.48 21.22
  Q 34.90 20.60 40.14 21.00
  C 46.78 21.51 48.29 28.21 45.15 33.44
  Q 44.90 33.85 44.47 34.07
  L 42.81 34.91
  Q 42.36 35.14 42.60 35.58
  Z
  M 33.01 25.00
  L 32.99 31.24
  A 0.97 0.97 0.0 0 0 33.96 32.21
  L 37.79 32.22
  A 4.84 3.96 0.1 0 0 42.64 28.27
  L 42.64 28.01
  A 4.84 3.96 0.1 0 0 37.81 24.04
  L 33.98 24.03
  A 0.97 0.97 0.0 0 0 33.01 25.00
  Z"
/>
</svg>
