<?xml version="1.0" encoding="UTF-8" standalone="no"?>
<!DOCTYPE svg PUBLIC "-//W3C//DTD SVG 1.1//EN" "http://www.w3.org/Graphics/SVG/1.1/DTD/svg11.dtd">
<svg xmlns="http://www.w3.org/2000/svg" version="1.1" viewBox="0.00 0.00 75.00 75.00">
<path fill="#757575" d="
  M 67.9000 58.5162
  A 12.55 12.55 0.0 0 1 55.3062 71.0224
  L 19.4665 70.8972
  A 12.55 12.55 0.0 0 1 6.9603 58.3035
  L 7.1000 18.2838
  A 12.55 12.55 0.0 0 1 19.6938 5.7776
  L 55.5335 5.9028
  A 12.55 12.55 0.0 0 1 68.0397 18.4965
  L 67.9000 58.5162
  Z
  M 10.80 20.40
  L 10.88 45.80
  A 11.25 11.25 0.0 0 0 22.17 57.01
  L 51.99 56.91
  A 12.29 11.20 -0.2 0 0 64.24 45.67
  L 64.16 20.17
  A 12.29 11.20 -0.2 0 0 51.83 9.01
  L 22.01 9.11
  A 11.25 11.25 0.0 0 0 10.80 20.40
  Z
  M 52.35 66.99
  C 58.84 67.21 62.91 64.44 63.99 57.87
  A 0.53 0.53 0.0 0 0 63.08 57.42
  Q 60.79 59.80 57.25 59.83
  Q 38.31 60.03 19.38 59.97
  C 16.15 59.96 13.82 59.52 11.72 57.32
  A 0.48 0.48 0.0 0 0 10.90 57.71
  C 11.75 64.22 15.91 66.77 22.30 66.90
  C 32.32 67.11 42.37 66.64 52.35 66.99
  Z"
/>
<path fill="#757575" d="
  M 34.98 24.00
  L 28.80 24.00
  A 0.71 0.71 0.0 0 1 28.09 23.29
  L 28.09 21.71
  Q 28.09 21.00 28.80 21.00
  L 46.50 21.00
  Q 47.00 21.00 47.00 21.50
  L 47.00 23.21
  A 0.78 0.78 0.0 0 1 46.22 23.99
  L 39.71 24.00
  A 0.80 0.79 -0.4 0 0 38.92 24.79
  L 39.00 43.82
  Q 39.00 44.61 38.25 44.87
  Q 36.83 45.36 36.29 44.54
  Q 36.01 44.12 36.01 42.89
  Q 36.00 33.73 36.00 25.02
  A 1.02 1.02 0.0 0 0 34.98 24.00
  Z"
/>
</svg>
