<?xml version="1.0" encoding="UTF-8" standalone="no"?>
<!DOCTYPE svg PUBLIC "-//W3C//DTD SVG 1.1//EN" "http://www.w3.org/Graphics/SVG/1.1/DTD/svg11.dtd">
<svg xmlns="http://www.w3.org/2000/svg" version="1.1" viewBox="0.00 0.00 75.00 75.00">
<path fill="#757575" d="
  M 68.0049 58.3468
  A 12.56 12.56 0.0 0 1 55.4668 70.9287
  L 19.6469 70.9912
  A 12.56 12.56 0.0 0 1 7.0650 58.4531
  L 6.9951 18.4532
  A 12.56 12.56 0.0 0 1 19.5332 5.8713
  L 55.3531 5.8088
  A 12.56 12.56 0.0 0 1 67.9350 18.3469
  L 68.0049 58.3468
  Z
  M 10.82 20.38
  L 10.90 45.80
  A 11.26 11.26 0.0 0 0 22.20 57.02
  L 51.92 56.92
  A 12.34 10.86 -0.2 0 0 64.23 46.02
  L 64.13 19.80
  A 12.34 10.86 -0.2 0 0 51.76 8.98
  L 22.04 9.08
  A 11.26 11.26 0.0 0 0 10.82 20.38
  Z
  M 10.90 57.64
  C 11.43 63.08 15.54 66.89 21.07 66.93
  Q 38.86 67.05 51.72 66.79
  C 58.61 66.65 63.38 65.20 63.88 57.68
  A 0.42 0.42 0.0 0 0 63.16 57.36
  Q 60.81 59.79 57.25 59.82
  Q 37.26 60.01 17.24 60.00
  Q 14.99 59.99 11.52 57.30
  A 0.38 0.38 0.0 0 0 10.90 57.64
  Z"
/>
<path fill="#757575" d="
  M 34.54 42.00
  L 45.25 42.01
  A 0.63 0.63 0.0 0 1 45.88 42.59
  L 46.02 44.32
  A 0.63 0.63 0.0 0 1 45.40 45.00
  L 30.63 45.00
  A 0.63 0.63 0.0 0 1 30.00 44.37
  L 30.00 21.63
  A 0.63 0.63 0.0 0 1 30.63 21.00
  L 45.34 21.00
  A 0.63 0.63 0.0 0 1 45.97 21.62
  L 46.01 23.20
  A 0.63 0.63 0.0 0 1 45.39 23.84
  L 34.51 24.07
  A 0.63 0.63 0.0 0 0 33.89 24.70
  L 33.91 41.37
  A 0.63 0.63 0.0 0 0 34.54 42.00
  Z"
/>
</svg>
