<?xml version="1.0" encoding="UTF-8" standalone="no"?>
<!DOCTYPE svg PUBLIC "-//W3C//DTD SVG 1.1//EN" "http://www.w3.org/Graphics/SVG/1.1/DTD/svg11.dtd">
<svg xmlns="http://www.w3.org/2000/svg" version="1.1" viewBox="0.00 0.00 75.00 75.00">
<path fill="#757575" d="
  M 67.97 58.43
  A 12.53 12.53 0.0 0 1 55.44 70.96
  L 19.56 70.96
  A 12.53 12.53 0.0 0 1 7.03 58.43
  L 7.03 18.39
  A 12.53 12.53 0.0 0 1 19.56 5.86
  L 55.44 5.86
  A 12.53 12.53 0.0 0 1 67.97 18.39
  L 67.97 58.43
  Z
  M 10.82 20.35
  L 10.90 45.85
  A 11.20 11.20 0.0 0 0 22.14 57.01
  L 52.08 56.91
  A 12.20 11.09 -0.2 0 0 64.24 45.78
  L 64.15 20.06
  A 12.20 11.09 -0.2 0 0 51.92 9.01
  L 21.98 9.11
  A 11.20 11.20 0.0 0 0 10.82 20.35
  Z
  M 52.89 67.01
  Q 62.14 67.32 64.07 57.94
  A 0.58 0.58 0.0 0 0 63.08 57.42
  Q 60.79 59.80 57.25 59.83
  Q 38.16 60.03 19.07 59.97
  C 15.99 59.97 13.72 59.42 11.69 57.33
  A 0.47 0.46 -71.0 0 0 10.90 57.72
  C 11.75 64.22 15.91 66.77 22.30 66.90
  C 32.50 67.10 42.72 66.67 52.89 67.01
  Z"
/>
<path fill="#757575" d="
  M 33.16 39.47
  C 31.98 41.99 32.10 46.00 27.92 45.11
  A 1.08 1.07 16.1 0 1 27.13 43.70
  L 34.95 22.26
  A 2.68 2.68 0.0 0 1 39.98 22.23
  L 48.05 43.74
  A 0.93 0.92 -13.2 0 1 47.27 44.99
  L 45.34 45.18
  Q 44.63 45.25 44.31 44.61
  L 41.79 39.58
  A 1.05 1.03 76.5 0 0 40.86 39.00
  L 33.89 39.00
  Q 33.38 39.00 33.16 39.47
  Z
  M 34.70 34.55
  A 0.31 0.31 0.0 0 0 34.99 34.95
  L 39.96 34.97
  A 0.31 0.31 0.0 0 0 40.26 34.57
  L 37.80 26.48
  A 0.31 0.31 0.0 0 0 37.21 26.48
  L 34.70 34.55
  Z"
/>
</svg>
