<?xml version="1.0" encoding="UTF-8" standalone="no"?>
<!DOCTYPE svg PUBLIC "-//W3C//DTD SVG 1.1//EN" "http://www.w3.org/Graphics/SVG/1.1/DTD/svg11.dtd">
<svg xmlns="http://www.w3.org/2000/svg" version="1.1" viewBox="0.00 0.00 75.00 75.00">
<path fill="#757575" d="
  M 68.0049 58.3568
  A 12.55 12.55 0.0 0 1 55.4768 70.9287
  L 19.6369 70.9912
  A 12.55 12.55 0.0 0 1 7.0650 58.4631
  L 6.9951 18.4432
  A 12.55 12.55 0.0 0 1 19.5232 5.8713
  L 55.3631 5.8088
  A 12.55 12.55 0.0 0 1 67.9350 18.3369
  L 68.0049 58.3568
  Z
  M 10.87 20.11
  L 10.91 46.01
  A 10.98 10.98 0.0 0 0 21.91 56.97
  L 52.28 56.91
  A 11.93 10.99 -0.1 0 0 64.19 45.90
  L 64.15 20.02
  A 11.93 10.99 -0.1 0 0 52.20 9.05
  L 21.83 9.11
  A 10.98 10.98 0.0 0 0 10.87 20.11
  Z
  M 10.85 57.75
  C 11.58 63.12 15.77 67.09 21.32 67.11
  Q 36.51 67.15 51.72 66.79
  C 58.63 66.63 63.38 65.21 63.88 57.67
  A 0.42 0.42 0.0 0 0 63.15 57.35
  Q 60.81 59.80 57.25 59.83
  Q 38.31 60.03 19.38 59.97
  C 16.16 59.96 13.82 59.52 11.72 57.32
  A 0.51 0.51 0.0 0 0 10.85 57.75
  Z"
/>
<path fill="#757575" d="
  M 36.81 42.19
  C 39.10 42.58 39.96 40.67 39.97 38.64
  Q 40.04 30.26 39.98 21.79
  A 0.79 0.79 0.0 0 1 40.77 21.00
  L 43.23 21.00
  A 0.78 0.77 90.0 0 1 44.00 21.78
  Q 43.99 29.99 44.00 38.15
  C 44.01 48.17 32.94 49.03 29.15 40.77
  Q 28.38 39.11 30.19 38.82
  C 33.04 38.36 34.13 41.73 36.81 42.19
  Z"
/>
</svg>
