<?xml version="1.0" encoding="UTF-8" standalone="no"?>
<!DOCTYPE svg PUBLIC "-//W3C//DTD SVG 1.1//EN" "http://www.w3.org/Graphics/SVG/1.1/DTD/svg11.dtd">
<svg xmlns="http://www.w3.org/2000/svg" version="1.1" viewBox="0.00 0.00 75.00 75.00">
<path fill="#757575" d="
  M 68.0149 58.3668
  A 12.54 12.54 0.0 0 1 55.4968 70.9286
  L 19.6168 70.9913
  A 12.54 12.54 0.0 0 1 7.0550 58.4732
  L 6.9851 18.4532
  A 12.54 12.54 0.0 0 1 19.5032 5.8914
  L 55.3832 5.8287
  A 12.54 12.54 0.0 0 1 67.9450 18.3468
  L 68.0149 58.3668
  Z
  M 64.12 45.84
  L 64.12 20.16
  A 11.16 11.16 0.0 0 0 52.96 9.00
  L 23.01 9.00
  A 12.15 10.41 0.0 0 0 10.86 19.41
  L 10.86 46.59
  A 12.15 10.41 0.0 0 0 23.01 57.00
  L 52.96 57.00
  A 11.16 11.16 0.0 0 0 64.12 45.84
  Z
  M 52.85 67.01
  Q 62.13 67.34 64.06 57.94
  A 0.58 0.58 0.0 0 0 63.08 57.42
  Q 60.79 59.80 57.25 59.83
  Q 38.31 60.03 19.38 59.97
  C 16.16 59.96 13.80 59.52 11.69 57.33
  A 0.48 0.48 0.0 0 0 10.87 57.75
  Q 12.52 66.98 22.00 67.04
  C 32.26 67.10 42.61 66.64 52.85 67.01
  Z"
/>
<path fill="#757575" d="
  M 36.94 29.28
  L 33.05 43.72
  A 2.50 2.50 0.0 0 1 28.23 43.73
  L 22.27 21.94
  Q 22.14 21.48 22.58 21.27
  C 25.07 20.05 26.44 21.22 27.02 23.69
  Q 28.71 30.80 30.31 37.79
  A 0.22 0.22 0.0 0 0 30.74 37.81
  Q 33.18 30.30 34.74 22.48
  A 2.85 2.85 0.0 0 1 40.34 22.51
  Q 41.79 30.29 44.29 37.75
  A 0.21 0.21 0.0 0 0 44.69 37.73
  L 48.38 22.15
  Q 48.50 21.64 48.97 21.41
  Q 50.60 20.58 52.34 21.18
  Q 52.88 21.37 52.73 21.91
  L 46.81 43.71
  A 2.47 2.47 0.0 0 1 42.04 43.73
  L 38.01 29.27
  Q 37.47 27.33 36.94 29.28
  Z"
/>
</svg>
