<?xml version="1.0" encoding="UTF-8" standalone="no"?>
<!DOCTYPE svg PUBLIC "-//W3C//DTD SVG 1.1//EN" "http://www.w3.org/Graphics/SVG/1.1/DTD/svg11.dtd">
<svg xmlns="http://www.w3.org/2000/svg" version="1.1" viewBox="0.00 0.00 75.00 75.00">
<path fill="#757575" d="
  M 68.0048 58.3268
  A 12.58 12.58 0.0 0 1 55.4468 70.9287
  L 19.6669 70.9912
  A 12.58 12.58 0.0 0 1 7.0649 58.4331
  L 6.9952 18.4732
  A 12.58 12.58 0.0 0 1 19.5532 5.8713
  L 55.3331 5.8088
  A 12.58 12.58 0.0 0 1 67.9351 18.3669
  L 68.0048 58.3268
  Z
  M 10.82 20.34
  L 10.90 45.84
  A 11.23 11.23 0.0 0 0 22.17 57.03
  L 51.78 56.93
  A 12.52 11.11 -0.2 0 0 64.26 45.78
  L 64.17 20.04
  A 12.52 11.11 -0.2 0 0 51.62 8.97
  L 22.01 9.07
  A 11.23 11.23 0.0 0 0 10.82 20.34
  Z
  M 52.89 67.01
  Q 62.14 67.32 64.06 57.94
  A 0.58 0.58 0.0 0 0 63.08 57.42
  Q 60.79 59.80 57.25 59.83
  Q 38.31 60.03 19.38 59.97
  C 16.15 59.96 13.82 59.52 11.72 57.32
  A 0.48 0.48 0.0 0 0 10.90 57.71
  C 11.75 64.22 15.91 66.77 22.30 66.90
  C 32.50 67.10 42.72 66.66 52.89 67.01
  Z"
/>
<path fill="#757575" d="
  M 37.4041 46.3495
  A 13.28 11.74 90.5 0 1 25.7804 32.9676
  A 13.28 11.74 90.5 0 1 37.6359 19.7905
  A 13.28 11.74 90.5 0 1 49.2596 33.1724
  A 13.28 11.74 90.5 0 1 37.4041 46.3495
  Z
  M 37.0471 42.1483
  A 9.15 7.55 92.9 0 0 45.0503 33.3920
  A 9.15 7.55 92.9 0 0 37.9729 23.8717
  A 9.15 7.55 92.9 0 0 29.9697 32.6280
  A 9.15 7.55 92.9 0 0 37.0471 42.1483
  Z"
/>
</svg>
