<?xml version="1.0" encoding="UTF-8" standalone="no"?>
<!DOCTYPE svg PUBLIC "-//W3C//DTD SVG 1.1//EN" "http://www.w3.org/Graphics/SVG/1.1/DTD/svg11.dtd">
<svg xmlns="http://www.w3.org/2000/svg" version="1.1" viewBox="0.00 0.00 75.00 75.00">
<path fill="#757575" d="
  M 68.0049 58.3468
  A 12.56 12.56 0.0 0 1 55.4668 70.9287
  L 19.6469 70.9912
  A 12.56 12.56 0.0 0 1 7.0650 58.4531
  L 6.9951 18.4532
  A 12.56 12.56 0.0 0 1 19.5332 5.8713
  L 55.3531 5.8088
  A 12.56 12.56 0.0 0 1 67.9350 18.3469
  L 68.0049 58.3468
  Z
  M 10.84 20.15
  L 10.94 46.05
  A 10.98 10.98 0.0 0 0 21.95 56.99
  L 52.32 56.89
  A 11.93 11.01 -0.2 0 0 64.21 45.84
  L 64.12 20.00
  A 11.93 11.01 -0.2 0 0 52.16 9.03
  L 21.79 9.13
  A 10.98 10.98 0.0 0 0 10.84 20.15
  Z
  M 52.89 67.01
  Q 62.14 67.32 64.07 57.94
  A 0.58 0.58 0.0 0 0 63.08 57.42
  Q 60.79 59.80 57.25 59.83
  Q 38.32 60.03 19.40 59.97
  C 16.14 59.96 13.80 59.52 11.67 57.31
  A 0.46 0.46 0.0 0 0 10.89 57.69
  C 11.75 64.21 15.88 66.77 22.30 66.90
  C 32.50 67.11 42.72 66.67 52.89 67.01
  Z"
/>
<path fill="#757575" d="
  M 37.62 39.49
  L 43.64 22.03
  A 0.74 0.72 -13.1 0 1 43.86 21.69
  Q 45.70 20.10 47.56 21.27
  A 0.93 0.92 26.4 0 1 47.93 22.36
  L 40.08 43.77
  A 2.69 2.69 0.0 0 1 35.03 43.78
  L 27.22 22.75
  A 1.20 1.20 0.0 0 1 27.66 21.34
  C 29.67 19.92 31.10 20.83 31.83 22.96
  Q 34.70 31.25 37.19 39.48
  A 0.23 0.23 0.0 0 0 37.62 39.49
  Z"
/>
</svg>
