<?xml version="1.0" encoding="UTF-8" standalone="no"?>
<!DOCTYPE svg PUBLIC "-//W3C//DTD SVG 1.1//EN" "http://www.w3.org/Graphics/SVG/1.1/DTD/svg11.dtd">
<svg xmlns="http://www.w3.org/2000/svg" version="1.1" viewBox="0.00 0.00 75.00 75.00">
<path fill="#757575" d="
  M 68.0048 58.3368
  A 12.57 12.57 0.0 0 1 55.4568 70.9287
  L 19.6569 70.9912
  A 12.57 12.57 0.0 0 1 7.0649 58.4431
  L 6.9952 18.4632
  A 12.57 12.57 0.0 0 1 19.5432 5.8713
  L 55.3431 5.8088
  A 12.57 12.57 0.0 0 1 67.9351 18.3569
  L 68.0048 58.3368
  Z
  M 10.85 20.25
  L 10.89 45.85
  A 11.16 11.16 0.0 0 0 22.07 56.99
  L 52.01 56.93
  A 12.22 10.88 -0.1 0 0 64.21 46.03
  L 64.17 19.87
  A 12.22 10.88 -0.1 0 0 51.93 9.01
  L 21.99 9.07
  A 11.16 11.16 0.0 0 0 10.85 20.25
  Z
  M 10.85 57.76
  C 11.59 63.12 15.77 67.09 21.32 67.11
  Q 36.78 67.16 52.26 66.77
  C 58.96 66.60 63.42 64.83 63.88 57.67
  A 0.43 0.42 -21.2 0 0 63.15 57.35
  Q 60.81 59.80 57.25 59.83
  Q 38.31 60.03 19.38 59.97
  C 16.16 59.96 13.80 59.52 11.70 57.34
  A 0.50 0.50 0.0 0 0 10.85 57.76
  Z"
/>
<path fill="#757575" d="
  M 42.90 27.44
  C 41.24 23.42 35.96 22.51 33.28 26.18
  A 2.01 2.01 0.0 0 0 34.05 29.20
  C 38.32 31.21 46.37 31.15 46.96 37.24
  C 47.99 47.96 31.74 49.17 28.06 40.35
  A 1.86 1.85 59.6 0 1 28.62 38.17
  C 30.09 37.00 31.50 38.08 32.51 39.38
  Q 36.05 43.95 41.54 41.29
  A 2.50 2.49 61.5 0 0 42.58 37.76
  C 40.70 34.64 34.47 34.52 32.05 33.21
  C 22.54 28.07 33.66 14.89 43.82 21.92
  Q 46.48 23.77 45.94 27.09
  A 1.59 1.59 0.0 0 1 42.90 27.44
  Z"
/>
</svg>
