<?xml version="1.0" encoding="UTF-8" standalone="no"?>
<!DOCTYPE svg PUBLIC "-//W3C//DTD SVG 1.1//EN" "http://www.w3.org/Graphics/SVG/1.1/DTD/svg11.dtd">
<svg xmlns="http://www.w3.org/2000/svg" version="1.1" viewBox="0.00 0.00 75.00 75.00">
<path fill="#757575" d="
  M 67.9350 58.4631
  A 12.55 12.55 0.0 0 1 55.3631 70.9912
  L 19.5232 70.9287
  A 12.55 12.55 0.0 0 1 6.9951 58.3568
  L 7.0650 18.3369
  A 12.55 12.55 0.0 0 1 19.6369 5.8088
  L 55.4768 5.8713
  A 12.55 12.55 0.0 0 1 68.0049 18.4432
  L 67.9350 58.4631
  Z
  M 10.87 20.12
  L 10.91 46.02
  A 10.98 10.98 0.0 0 0 21.91 56.98
  L 52.31 56.92
  A 11.90 10.91 -0.1 0 0 64.19 45.99
  L 64.15 19.95
  A 11.90 10.91 -0.1 0 0 52.23 9.06
  L 21.83 9.12
  A 10.98 10.98 0.0 0 0 10.87 20.12
  Z
  M 52.89 67.01
  Q 62.14 67.32 64.07 57.94
  A 0.58 0.58 0.0 0 0 63.08 57.42
  Q 60.79 59.80 57.25 59.83
  Q 38.32 60.03 19.40 59.97
  C 16.14 59.96 13.80 59.52 11.67 57.31
  A 0.46 0.46 0.0 0 0 10.89 57.69
  C 11.75 64.22 15.89 66.77 22.31 66.90
  C 32.51 67.11 42.72 66.67 52.89 67.01
  Z"
/>
<rect fill="#757575" x="-2.60" y="-2.65" transform="translate(46.61,25.45) rotate(-0.8)" width="5.20" height="5.30" rx="0.95"/>
<path fill="#757575" d="
  M 42.62 45.72
  C 43.59 41.86 45.10 38.91 44.99 34.88
  A 0.78 0.77 84.8 0 1 45.63 34.10
  L 48.05 33.66
  Q 48.62 33.56 48.79 34.11
  Q 51.38 42.65 44.28 46.95
  A 1.12 1.12 0.0 0 1 42.62 45.72
  Z"
/>
</svg>
