<?xml version="1.0" encoding="UTF-8" standalone="no"?>
<!DOCTYPE svg PUBLIC "-//W3C//DTD SVG 1.1//EN" "http://www.w3.org/Graphics/SVG/1.1/DTD/svg11.dtd">
<svg xmlns="http://www.w3.org/2000/svg" version="1.1" viewBox="0.00 0.00 75.00 75.00">
<path fill="#757575" d="
  M 67.9350 58.4531
  A 12.55 12.55 0.0 0 1 55.3632 70.9812
  L 19.5232 70.9187
  A 12.55 12.55 0.0 0 1 6.9951 58.3468
  L 7.0650 18.3469
  A 12.55 12.55 0.0 0 1 19.6368 5.8188
  L 55.4768 5.8813
  A 12.55 12.55 0.0 0 1 68.0049 18.4532
  L 67.9350 58.4531
  Z
  M 10.83 20.15
  L 10.93 46.05
  A 10.98 10.98 0.0 0 0 21.94 56.99
  L 52.33 56.89
  A 11.93 11.02 -0.2 0 0 64.22 45.83
  L 64.13 20.01
  A 11.93 11.02 -0.2 0 0 52.17 9.03
  L 21.78 9.13
  A 10.98 10.98 0.0 0 0 10.83 20.15
  Z
  M 52.95 66.88
  C 59.01 66.94 63.52 64.12 63.88 57.68
  A 0.42 0.42 0.0 0 0 63.15 57.36
  Q 60.81 59.80 57.25 59.83
  Q 38.32 60.03 19.40 59.97
  C 16.14 59.96 13.80 59.52 11.67 57.31
  A 0.46 0.46 0.0 0 0 10.89 57.69
  C 11.75 64.21 15.88 66.76 22.30 66.90
  C 32.53 67.11 42.73 66.79 52.95 66.88
  Z"
/>
<rect fill="#757575" x="-3.64" y="-3.52" transform="translate(47.58,41.52) rotate(-1.3)" width="7.28" height="7.04" rx="0.53"/>
</svg>
